<?xml version="1.0" encoding="UTF-8"?>
<svg id="Livello_2" data-name="Livello 2" xmlns="http://www.w3.org/2000/svg" viewBox="0 0 840.95162 803.20313">
  <g id="Livello_1-2" data-name="Livello 1">
    <path d="M260.51761,233.66881c1.27734.31858,2.0136.48981,3.12585.5908.64503.32192,2.00804.12056,2.64955.44339,4.15676,1.05305,5.23752,1.8844,8.69935,2.55254,7.69945,3.7324,16.08742,5.76342,23.60706,10.01655,16.21592,9.1719,28.30819,21.12897,32.89209,40.21771,6.95473,28.96151-16.65977,46.50754-39.55025,47.9311-15.5396.96637-29.98869-3.71311-44.02798-8.77351-24.71407-8.90793-48.24148-7.84376-71.50179,4.03551-6.4299,3.2838-12.62084,1.92945-18.56033-1.55569-15.20001-14.18691-16.45744-30.59009-3.20703-50.34824,19.98108-29.79413,48.54043-44.40802,83.95398-46.33016,4.66155-.25304,9.35047-.00181,14.0308.01499,2.54208.29568,3.80898.80393,5.51071.83925.80254.01666,1.59914.17153,2.378.36579Z" fill="#88cdd3" stroke-width="0"/>
    <path d="M489.76941,629.47136c47.25132.13451,87.55822,32.75081,100.61299,80.32744,4.82867,17.59715,7.33076,35.23564.29304,52.82744-5.14556,12.86158-13.69465,22.97818-27.02109,27.4894-16.87878,5.71345-30.50799-1.45435-42.10024-13.18894-10.17855-10.30343-14.34693-23.97935-19.16625-37.1553-3.30089-9.02512-6.15364-18.18762-10.05741-27.01722-6.54055-14.79384-18.33368-24.42127-31.59621-32.2476-9.61174-5.67211-16.16832-11.9764-13.80492-24.17038,2.29605-11.8459,9.24258-19.58708,20.32124-23.60072,7.64021-2.76789,15.65225-3.76008,22.51885-3.26413Z" fill="#1dab9e" stroke-width="0"/>
    <path d="M439.37688,169.74021c5.35007-10.04992,9.01345-20.94601,16.3528-29.99862,21.27362-26.24049,49.30527-25.5811,69.07878,1.87155,10.71808,18.91255,8.97243,38.58683,2.73637,58.13649-11.39955,35.73546-33.45442,62.03495-69.7572,74.19642-21.47718,7.19491-43.30197,8.69533-64.27367-2.38201-11.61418-6.1346-17.28438-21.20024-13.20215-33.61861,1.83512-5.58275,6.73686-7.83388,11.36807-9.94352,25.50028-11.61616,39.88889-32.20913,47.69699-58.26169Z" fill="#88cdd3" stroke-width="0"/>
    <path d="M319.97319,469.9283c-17.54127.78092-32.49794-3.67426-44.82297-14.89637-21.78167-19.83233-18.15206-49.87597,7.1499-65.17263,13.31185-8.04782,28.1569-10.94316,42.92222-13.28016,26.02483-4.11909,46.96086-15.23261,61.96942-37.50586,7.41852-11.00922,26.47736-8.64148,35.7829,3.50719,10.38059,13.55238,9.34427,28.75998,6.00712,44.06304-9.46427,43.40188-44.06576,74.90398-89.06491,81.59214-6.95254,1.03334-13.86664,2.18382-19.94368,1.69264Z" fill="#1dab9e" stroke-width="0"/>
    <path d="M231.47843,562.54718c-1.1176,42.24553-21.53928,72.6528-57.75802,93.22338-14.45005,8.20687-29.55361,13.80403-46.69329,12.91132-19.77293-1.03009-38.22185-14.05702-41.59428-31.73102-3.31721-17.38435,4.32739-31.46266,16.35614-43.36346,8.95355-8.85824,19.72324-15.43471,30.63935-21.36468,20.87097-11.33763,34.37656-28.27959,40.79482-50.81317,3.02779-10.63002,8.03808-17.94599,20.06101-17.89205,11.73952.05279,21.39772,4.35762,27.48545,14.72768,7.97971,13.59305,11.51488,28.37544,10.70883,44.302Z" fill="#1dab9e" stroke-width="0"/>
    <path d="M592.13987,585.09413c-1.08612-12.24056,2.08562-25.71027,9.56023-38.13432,13.39226-22.26007,42.78304-33.8484,65.8107-8.56649,7.57744,8.31923,11.50353,18.46285,13.70781,29.29316,2.38305,11.71024,3.85416,23.55662,5.28063,35.43278,2.29586,19.11241,11.6613,34.70799,25.83825,47.55095,7.99583,7.24341,16.54797,14.28194,10.97354,27.13054-5.9663,13.75219-16.88012,20.07186-31.30622,20.30776-22.82963.37337-42.76625-8.19341-60.11245-22.29625-27.91146-22.69283-39.8412-52.98496-39.75248-90.71813Z" fill="#88cdd3" stroke-width="0"/>
    <path d="M35.98753,490.12665c-11.8291-7.17238-23.1033-14.97523-30.53423-27.10514-6.67715-10.89953-7.63926-21.89348-.5526-33.04456,5.49535-8.64716,10.96438-10.94173,21.01835-9.16851,14.73269,2.59834,29.5372,3.73965,43.69307-2.39232,10.95265-4.74435,21.28859-10.73762,30.58641-18.35153,11.4834-5.36442,21.95852-12.82229,34.76423-15.42393,21.86533-4.44201,42.39948,5.42342,47.90694,24.63712,5.23045,18.24767,1.48676,35.74457-10.95827,49.7867-28.424,32.07175-63.66518,47.84069-107.15563,40.46802-9.96354-1.68911-19.5688-5.07286-28.76826-9.40584Z" fill="#88cdd3" stroke-width="0"/>
    <path d="M745.39623,132.95743c-.60916,21.15647-10.69938,34.82188-24.94959,45.99354-9.79394,7.67817-19.71913,15.20502-29.83263,22.45463-15.0242,10.76979-22.24469,26.24493-26.75266,43.38761-2.27411,8.64826-3.82726,17.73539-14.56156,19.9815-13.05038,2.7308-24.35607-.52741-32.6188-11.29882-8.11926-10.5842-11.81736-23.03326-13.30393-36.14072-6.51021-57.40993,28.80546-99.54816,75.85437-117.25094,17.61863-6.62936,34.95987-4.42459,50.67184,5.87689,10.15642,6.65905,15.04404,16.88014,15.49295,26.99631Z" fill="#1dab9e" stroke-width="0"/>
    <path d="M830.36631,509.58475c-2.31646,33.31101-13.03226,62.82251-39.83643,84.55894-10.7757,8.73833-23.72363,11.6478-37.43583,10.03116-15.94033-1.87918-28.12056-15.02229-31.06889-31.61494-2.99316-16.84582,2.77167-31.72405,8.98541-46.62396,5.38957-12.92344,12.12986-25.27856,14.7924-39.2931,2.42387-12.75895-.86596-24.80514-3.77441-36.85763-1.97726-8.19379-5.30219-16.03501,2.70737-22.95355,10.00036-8.63828,20.914-12.49871,33.70091-6.80235,22.27388,9.92271,35.54614,28.07099,44.7416,49.75062,5.36019,12.63752,7.1873,25.98388,7.18787,39.80481Z" fill="#1dab9e" stroke-width="0"/>
    <path d="M232.80255,701.90344c.25403-18.81637,6.90122-30.20488,20.56448-35.01606,10.79792-3.80209,17.30795-2.61705,23.95495,6.61628,16.03229,22.27038,38.2539,32.50603,64.69463,36.03776,15.76491,2.10573,31.72441,5.39955,44.34353,15.7236,29.47749,24.11672,18.46255,57.68674-11.41443,71.22432-24.88367,11.2751-50.26271,6.82927-74.41693-2.18077-37.94102-14.15268-59.67346-42.70292-67.16935-82.2787-.62366-3.29239-.39148-6.74717-.55689-10.12643Z" fill="#88cdd3" stroke-width="0"/>
    <path d="M613.88796,462.34054c-47.18531.85033-88.39288-32.71606-101.37401-77.32336-4.56253-15.6793-7.57306-31.16514-2.96359-47.41061,5.92661-20.8882,22.65583-34.90069,41.42392-33.26657,15.60627,1.35884,26.92017,10.2041,35.48223,22.85712,8.38693,12.39426,13.75436,26.33711,18.95639,40.16587,7.31569,19.44621,20.52175,32.70933,38.59005,41.9755,5.01163,2.57008,10.49315,4.71906,13.77516,9.84098,4.97939,7.77039,2.81269,21.7033-4.50014,29.67227-11.10651,12.10337-25.52136,14.04471-39.39,13.4888Z" fill="#88cdd3" stroke-width="0"/>
    <path d="M657.93836,341.12287c-.41361-14.03039,4.84145-26.39181,13.62082-36.54521,24.26888-28.06717,54.37051-45.63167,92.51242-43.7017,27.20367,1.3765,51.98995,10.32644,69.73945,32.73782,6.84427,8.64196,9.21492,18.50538,5.14384,29.3356-4.67852,12.4461-10.32851,15.6015-23.87663,14.33163-21.72424-2.03637-41.69635,2.16764-59.32147,16.20767-11.56534,9.21295-23.62118,17.9721-37.24333,24.12083-12.13234,5.4763-24.76262,6.29403-37.25344,2.0083-15.48208-5.31196-23.46779-19.11504-23.32165-38.49495Z" fill="#88cdd3" stroke-width="0"/>
    <path d="M427.15038,491.73862c23.72353.83801,45.70743,6.26067,63.15665,23.91366,9.23113,9.33863,11.66474,21.71638,6.72847,33.72849-2.76232,6.72187-7.45439,11.19128-14.61421,10.9633-30.41222-.96842-52.84789,13.97005-72.56197,35.07573-9.979,10.6833-20.62448,20.93546-35.32035,24.6965-41.17075,10.53637-57.89042-21.35599-51.46654-51.52507,5.70579-26.79612,24.30379-44.89686,45.88848-59.73824,17.30394-11.89812,36.89973-17.68832,58.18947-17.11437Z" fill="#88cdd3" stroke-width="0"/>
    <path d="M336.12272,158.55452c-42.90438.58283-84.44973-27.58363-99.86283-72.31089-5.27309-15.30159-9.40732-30.68508-6.41616-47.28144,3.51476-19.50249,18.06726-36.35724,35.62465-38.60583,17.47736-2.23828,30.64564,6.28148,40.81647,19.54168,9.75483,12.71795,15.34929,27.76444,20.93193,42.56731,7.37884,19.56598,20.43094,33.40366,38.825,42.66793,8.4869,4.27451,17.09685,8.46544,16.56266,20.20895-.54058,11.88714-5.74795,20.89474-16.2865,26.58952-9.63845,5.20823-20.03821,7.02908-30.19521,6.62277Z" fill="#1dab9e" stroke-width="0"/>
    <path d="M57.49657,214.81125c1.51289-45.3508,23.90105-77.0867,63.50005-97.8496,16.33735-8.56606,33.20497-12.00347,51.06924-6.24744,28.32269,9.12584,35.22658,35.2997,21.07578,60.30727-7.01626,12.39918-18.6147,20.0825-29.60074,28.37276-7.2555,5.47511-14.62499,10.80745-21.73063,16.47125-12.85044,10.24295-18.56968,24.78356-22.80177,39.9146-2.41176,8.62268-3.47784,17.70818-14.26461,20.13219-12.69171,2.85224-23.6952.25891-31.96194-10.40897-11.53882-14.89031-15.31428-32.13647-15.28538-50.69207Z" fill="#88cdd3" stroke-width="0"/>
  </g>
</svg>