<?xml version="1.0" encoding="UTF-8"?>
<svg id="Livello_2" data-name="Livello 2" xmlns="http://www.w3.org/2000/svg" viewBox="0 0 92.98047 21.0598">
  <g id="Livello_1-2" data-name="Livello 1">
    <g>
      <path d="M4.07959,10.27562h3.28516l3.56982,10.60449h-2.64014l-1.00488-3.10449h-3.58496l-1.15479,3.10449H0l4.07959-10.60449ZM6.68945,15.92992l-1.06494-4.0791-1.24463,4.0791h2.30957Z" fill="#fff" stroke-width="0"/>
      <path d="M11.29443,15.64574c0-3.69043,1.96484-5.52051,5.81982-5.52051,1.57471,0,2.50488.28516,3.2998.64551l-.6748,1.84473c-1.00537-.26953-1.42529-.375-2.59521-.38965-1.91992-.03027-3.25488,1.0498-3.25488,3.26953s1.41016,3.40527,3.55518,3.40527c1.03467,0,1.6499-.09082,2.45947-.30078l.54004,1.91992c-1.02002.375-1.90479.51074-3.26953.51074-3.88477,0-5.87988-1.90527-5.87988-5.38477Z" fill="#fff" stroke-width="0"/>
      <path d="M22.10938,10.27562h2.95508l4.16943,7.27441-.07471-1.18457v-6.08984h2.5498v10.60449h-3.04492l-4.06494-7.09473.06006,1.41016v5.68457h-2.5498v-10.60449Z" fill="#fff" stroke-width="0"/>
      <path d="M34.04932,10.27562h6.95996v1.99512h-4.41016v2.35449h4.08008v1.86035h-4.08008v2.39941h4.75488v1.99512h-7.30469v-10.60449Z" fill="#fff" stroke-width="0"/>
      <path d="M43.24414,10.27562h3.71973c2.59521,0,3.94482.92969,3.94482,2.9248,0,.88477-.5249,1.54492-1.06494,1.88965v.03027c.72021.25488,1.83008,1.03516,1.83008,2.49023,0,1.93457-1.14014,3.26953-4.25977,3.26953h-4.16992v-10.60449ZM46.72412,14.62523c1.10986,0,1.66504-.19531,1.66504-1.13965,0-.90039-.6001-1.25977-1.80029-1.25977h-.77979v2.39941h.91504ZM47.09912,18.88499c1.34961,0,2.0249-.35938,2.0249-1.21484,0-.95996-.73486-1.30469-2.20508-1.30469h-1.10986v2.51953h1.29004Z" fill="#fff" stroke-width="0"/>
      <path d="M53.41406,10.27562h2.5498v10.60449h-2.5498v-10.60449Z" fill="#fff" stroke-width="0"/>
      <path d="M57.77881,15.55492c0-3.34473,2.21973-5.44434,5.83496-5.44434,3.85449,0,5.51953,2.30957,5.51953,5.47461,0,3.375-2.0249,5.47461-5.80469,5.47461-3.71973,0-5.5498-2.09961-5.5498-5.50488ZM66.53857,15.57054c0-1.98047-.91504-3.4502-3.06006-3.4502-2.25,0-3.11963,1.46973-3.11963,3.41992,0,1.93457.85449,3.50977,3.01465,3.50977,2.33984,0,3.16504-1.5,3.16504-3.47949Z" fill="#fff" stroke-width="0"/>
      <path d="M71.16504,9.89085c.24023,0,.47119.06055.69189.18066.22119.12012.39453.29199.521.5166s.18945.45996.18945.70508c0,.24414-.06201.47754-.18555.69922-.12402.2207-.29688.39355-.51855.51758-.22119.12402-.4541.18652-.69824.18652s-.47705-.0625-.69873-.18652-.39404-.29688-.51807-.51758c-.12402-.22168-.18604-.45508-.18604-.69922,0-.24512.06348-.48047.18945-.70508.12646-.22461.30029-.39648.521-.5166.22119-.12012.45166-.18066.69238-.18066ZM71.1665,10.16527c-.19287,0-.37744.04883-.55469.14453-.17676.09668-.31641.23535-.41846.41602-.10156.18066-.15283.37012-.15283.56738s.0498.38379.14941.5625c.09961.17773.23828.31738.4165.41699.17822.10059.36475.15039.56006.15039.19678,0,.38379-.0498.56152-.15039.17773-.09961.31641-.23926.4165-.41699.1001-.17871.1499-.36523.1499-.5625s-.05078-.38672-.15283-.56738c-.10156-.18066-.2417-.31934-.41895-.41602-.17773-.0957-.36328-.14453-.55615-.14453ZM70.53125,12.04417v-1.48828h.30225c.2832,0,.44189.00098.47607.00293.1001.00879.17773.02832.2334.05957s.10205.0791.13916.14355c.03711.06348.05566.13477.05566.21289,0,.10742-.03467.19922-.10498.27539s-.16895.12402-.2959.1416c.04541.01758.08008.03613.10449.05664.02441.01953.05811.05762.10059.11426.01123.01465.04785.0752.10986.18066l.17578.30078h-.37354l-.12451-.24219c-.08398-.16211-.15381-.26367-.2085-.30664-.05518-.04199-.12451-.0625-.20898-.0625h-.07861v.61133h-.30225ZM70.8335,11.19847h.12256c.1748,0,.2832-.00684.3252-.02051s.0752-.03711.09961-.07031.03662-.07129.03662-.11426c0-.04199-.01172-.0791-.03564-.11133s-.05762-.05566-.10156-.06934-.15186-.02051-.32422-.02051h-.12256v.40625Z" fill="#fff" stroke-width="0"/>
      <path d="M75.69922,10.01488h2.40332c1.20654,0,2.17871.63086,2.17871,1.92676,0,1.89941-1.74658,2.55664-3.3667,2.55664h-.28809l-.19824,1.88184h-1.39551l.6665-6.36523ZM76.74316,13.40941c1.03564-.01855,2.08887-.1084,2.08887-1.29688,0-.68359-.40527-1.00781-1.03516-1.00781h-.81055l-.24316,2.30469Z" fill="#ff5c35" stroke-width="0"/>
      <path d="M82.94434,13.97679c-.15283.01758-.30615.02637-.45898.02637-.15332,0-.29736-.00879-.4502-.00879l-.25195,2.38574h-1.39551l.66602-6.36523h2.38574c1.15234,0,2.17871.48633,2.17871,1.71973,0,.8916-.42334,1.53027-1.22412,1.91797l1.59326,2.43066-1.2876.64844-1.75537-2.75488ZM82.71924,13.00414c.84619,0,1.4585-.24316,1.4585-1.16992,0-.63086-.48633-.7207-1.04443-.7207h-.79199l-.19824,1.89062h.57617Z" fill="#ff5c35" stroke-width="0"/>
      <path d="M86.21973,13.70628c0-2.37695,1.4585-3.79004,3.80811-3.79004,1.81836,0,2.95264.93652,2.95264,2.75488,0,2.39453-1.4043,3.81738-3.79883,3.81738-1.81885,0-2.96191-.99023-2.96191-2.78223ZM91.54932,12.82445c0-1.10742-.55811-1.80078-1.71045-1.80078-1.50342,0-2.20557,1.11621-2.20557,2.5293,0,1.09863.54004,1.82812,1.69238,1.82812,1.53955,0,2.22363-1.12598,2.22363-2.55664Z" fill="#ff5c35" stroke-width="0"/>
    </g>
    <path d="M47.68123,1.41615c.3898,0,.70807-.31748.70807-.70967,0-.38984-.31827-.70648-.70807-.70648-.39301,0-.70806.31665-.70806.70648,0,.39219.31505.70967.70806.70967M43.60161,4.31512c1.0183,2.37173,4.06515,2.88288,4.06515,2.88288,0,0-5.60827-4.0177-3.44227-4.61405.92586-.25719,2.44005.34961,2.44005.34961,0,0-.11573-.39945-.05063-.56903-.11413-.07314-.61564-.50232-1.95864-.45572-.80451.03135-1.15573.5835-1.22806,1.20478-.26683-.09806-.72655-.17041-1.4322-.00804-1.41131.32307-1.41453,2.05665-.90337,2.68838,1.18145,1.46275,3.91405,1.48365,3.91405,1.48365,0,0-4.63257-1.89595-3.44389-3.33859.53125-.64776,1.48605-.35525,1.88469-.19048.03135.20171.0868.39543.15512.56663M46.97316,2.63535l.02331.1246c-.01286-.03939-.02009-.08197-.02331-.1246M48.3692,2.73983l.01687-.10449c-.00402.03537-.00803.06833-.01687.10449M46.99647,2.75995l.71771,3.906.65502-3.92612c.00884-.03615.02009-.17198.02009-.17198,0-.38979-.31827-.70565-.70807-.70565-.39301,0-.70806.31586-.70806.70565,0,0,.01045.15271.02331.1921M51.91998,3.74849c.39864-.16477,1.35023-.45728,1.88389.19048,1.19109,1.44264-3.44308,3.33859-3.44308,3.33859,0,0,2.73019-.0209,3.91164-1.48365.51277-.63172.51277-2.3653-.90015-2.68838-.70967-.16237-1.16859-.09001-1.43381.00804-.06993-.62127-.42355-1.17343-1.23048-1.20478-1.33898-.0466-1.8429.38258-1.95542.45572.06671.16958-.05546.56903-.05546.56903,0,0,1.5174-.6068,2.44488-.34961,2.16519.59635-3.44549,4.61405-3.44549,4.61405,0,0,3.04926-.51115,4.06354-2.88288.07394-.1712.12779-.36492.15994-.56663" fill="#ff5c35" fill-rule="evenodd" stroke-width="0"/>
  </g>
</svg>