<?xml version="1.0" encoding="UTF-8"?>
<svg id="Livello_2" data-name="Livello 2" xmlns="http://www.w3.org/2000/svg" viewBox="0 0 30.13443 30.13443">
  <g id="Livello_1-2" data-name="Livello 1">
    <g>
      <path d="M15.06722,30.13443C6.75911,30.13443,0,23.37532,0,15.06722S6.75911,0,15.06722,0s15.06722,6.75911,15.06722,15.06722-6.75916,15.06722-15.06722,15.06722ZM15.06722,1.86279C7.78628,1.86279,1.86279,7.78629,1.86279,15.06722s5.9235,13.20443,13.20443,13.20443,13.20443-5.9235,13.20443-13.20443S22.34819,1.86279,15.06722,1.86279Z" fill="#fff" stroke-width="0"/>
      <g>
        <polygon points="4.41312 24.40435 9.52648 19.291 9.52648 21.92498 5.73012 25.72134 4.41312 24.40435" fill="#fff" stroke-width="0"/>
        <polygon points="25.72157 5.72989 20.60821 10.84325 20.60821 8.20926 24.40458 4.4129 25.72157 5.72989" fill="#fff" stroke-width="0"/>
      </g>
      <g>
        <path d="M16.40935,7.47589c0,1.23956-.53062,2.33534-1.34185,2.99561-.81182-.66026-1.34245-1.75604-1.34245-2.99561,0-1.24026.53062-2.33604,1.34245-2.9956.81123.66026,1.34185,1.75604,1.34185,2.9956Z" fill="#ff5c35" stroke-width="0"/>
        <g>
          <path d="M18.38913,24.46782c-.8765.8765-2.02654,1.27613-3.06704,1.16938-.10717-1.04092.29246-2.19096,1.16896-3.06746.877-.877,2.02704-1.27663,3.06746-1.16896.10675,1.0405-.29288,2.19054-1.16938,3.06704Z" fill="#ff5c35" stroke-width="0"/>
          <path d="M18.38913,20.19731c-.8765.8765-2.02654,1.27613-3.06704,1.16938-.10717-1.04092.29246-2.19096,1.16896-3.06746.877-.877,2.02704-1.27663,3.06746-1.16896.10675,1.0405-.29288,2.19054-1.16938,3.06704Z" fill="#ff5c35" stroke-width="0"/>
          <path d="M18.38913,15.9268c-.8765.8765-2.02654,1.27613-3.06704,1.16938-.10717-1.04092.29246-2.19096,1.16896-3.06746.877-.877,2.02704-1.27663,3.06746-1.16896.10675,1.0405-.29288,2.19054-1.16938,3.06704Z" fill="#ff5c35" stroke-width="0"/>
          <path d="M18.38913,11.65628c-.8765.8765-2.02654,1.27613-3.06704,1.16938-.10717-1.04092.29246-2.19096,1.16896-3.06746.877-.877,2.02704-1.27663,3.06746-1.16896.10675,1.0405-.29288,2.19054-1.16938,3.06704Z" fill="#ff5c35" stroke-width="0"/>
          <path d="M11.74528,24.46782c.8765.8765,2.02654,1.27613,3.06704,1.16938.10717-1.04092-.29246-2.19096-1.16896-3.06746-.877-.877-2.02704-1.27663-3.06746-1.16896-.10675,1.0405.29288,2.19054,1.16938,3.06704Z" fill="#ff5c35" stroke-width="0"/>
          <path d="M11.74528,20.19731c.8765.8765,2.02654,1.27613,3.06704,1.16938.10717-1.04092-.29246-2.19096-1.16896-3.06746-.877-.877-2.02704-1.27663-3.06746-1.16896-.10675,1.0405.29288,2.19054,1.16938,3.06704Z" fill="#ff5c35" stroke-width="0"/>
          <path d="M11.74528,15.9268c.8765.8765,2.02654,1.27613,3.06704,1.16938.10717-1.04092-.29246-2.19096-1.16896-3.06746-.877-.877-2.02704-1.27663-3.06746-1.16896-.10675,1.0405.29288,2.19054,1.16938,3.06704Z" fill="#ff5c35" stroke-width="0"/>
          <path d="M11.74528,11.65628c.8765.8765,2.02654,1.27613,3.06704,1.16938.10717-1.04092-.29246-2.19096-1.16896-3.06746-.877-.877-2.02704-1.27663-3.06746-1.16896-.10675,1.0405.29288,2.19054,1.16938,3.06704Z" fill="#ff5c35" stroke-width="0"/>
        </g>
      </g>
    </g>
  </g>
</svg>