<?xml version="1.0" encoding="UTF-8"?>
<svg id="Livello_1" data-name="Livello 1" xmlns="http://www.w3.org/2000/svg" viewBox="0 0 1365.99494 765.10615">
  <path d="M-1151.06802,594.12937l1.73625-598.06441c.00814-2.80273,2.28671-5.06825,5.08972-5.06011L67.02678-5.47869l2.04977.00595L2185.83763.67246c2.80273.00814,5.06825,2.28685,5.06011,5.08958l-.33442,115.19209c-.00321,1.10735.35624,2.18528,1.02254,3.06968.00689.00919.01377.01824.02066.02743.6552.87013.99352,1.93783.99036,3.02698l-1.21887,419.85006c-.00584,2.01154-1.20191,3.79841-3.03794,4.6201-1.44162.64522-2.92057,1.41603-4.43534,2.32698-26.70731,16.06162-59.25599,2.37226-71.84256-35.04076-12.58685-37.41387-67.26657-6.9918-41.93996,15.16823,25.32717,22.15975,2.39587,49.27643-17.03632,37.32731-19.43191-11.9487-34.56753-45.97129-100.69754-7.08886-66.13114,38.8837-84.59572-14.68583-65.91166-36.71753,18.68462-22.03169-7.48657-45.0442-28.70432-24.71807-21.21831,20.32542-54.22878,21.07933-80.38328-7.87906-26.15337-28.95711-67.67664-11.23944-72.8805,32.06885-5.20499,43.30759-30.64532,60.22291-58.52316,42.30376-27.87784-17.91986-51.58658-14.59127-77.06362,15.06626-25.47789,29.65696-48.27026,11.92992-47.38458-4.38458,2.04442-37.65934-30.51159-41.14394-53.28365-12.89742-31.42846,38.98444-48.36302,40.96701-92.37369,40.83924l-107.9872-.3135-1.8256-.0053-120.5419-.34995c-21.15941-.06143-30.54791-7.15298-39.70801-21.67737-9.16066-14.52468-19.30397-19.17938-49.62565,2.60535-30.32154,21.78558-47.07501-2.88876-35.61264-15.173,11.46195-12.28367-4.54264-38.66407-31.25052-22.6016-26.70717,16.06162-59.30409,18.98898-71.89052-18.42404-12.58699-37.41387-67.26699-6.9918-41.94024,15.16822,25.32746,22.15975,2.44411,32.65971-16.98794,20.71058-19.43191-11.9487-34.61591-29.35456-100.74606,9.52787-66.13071,38.8837-84.59529-14.68583-65.91123-36.71753,18.68462-22.03169-7.48657-45.0442-28.70446-24.71807-21.21831,20.32542-53.8739,16.34478-80.02825-12.61361-26.15365-28.95711-68.03181-6.50489-73.23581,36.80341-5.20485,43.30759-30.64504,60.22291-58.52288,42.30376-27.87812-17.91986-51.58658-14.59127-77.06376,15.06626-25.47774,29.65696-48.27011,11.92992-47.38444-4.38458,2.04428-37.65935-30.51159-41.14394-53.28365-12.89742-31.34648,38.88226-48.27425,40.95641-92.02832,40.84025-.22601-.00066-.45777-.01628-.68158-.04656l-56.13731-7.60749c-21.73507-.67893-44.89097,1.79856-59.68373,12.51938-34.78052,25.20645-85.77785,45.18611-102.96412,43.38763-1.6692.79411-3.51559,1.14808-5.36273,1.08008-19.09054-.70271-28.01729-7.79348-36.73697-21.61979-9.16066-14.52468-19.30397-19.17938-49.62565,2.60535-30.32154,21.78558-47.07515-2.88877-35.61264-15.173,11.46195-12.28367-4.58727-23.28858-31.29516-7.22611-26.70731,16.06162-59.32198,25.10318-71.90827-12.30985-12.58685-37.41387-67.26685-6.9918-41.94024,15.16822,25.32746,22.15975-5.91238,36.69877-25.34456,24.74965-19.43191-11.9487-19.9326-18.22128-101.2692,3.99097-74.00521,20.20998-89.89538,10.98318-71.21132-11.04852,18.68462-22.03169-5.59116-31.08491-26.80891-10.75878-21.21859,20.32542-23.68593,36.58481-69.01828,18.09439-39.60863-16.15581-56.43265-77.42327-72.37646-32.01383-14.45038,41.15604,4.56624-23.79812-23.3116-41.71727-27.87812-17.91986-89.26719-24.52411-89.07539,14.57343.31994,65.13205-81.9032,57.40073-95.1043,47.77358-87.30339-63.66774-86.11694-5.4293-115.56544,15.76543-39.40039,28.3571-116.77054-10.97254-145.30516,11.50516-3.37621,2.65934-8.31372.19454-8.2056-4.10182l1.87579-74.53336Z" fill="red" stroke-width="0"/>
</svg>