<?xml version="1.0" encoding="UTF-8"?>
<svg id="Livello_1" data-name="Livello 1" xmlns="http://www.w3.org/2000/svg" viewBox="0 0 1365.99494 765.10615">
  <path d="M1365.68516,414.95714l.30977-414.95714L.36778.00829,0,396.98986H0v147.68152c17.61227-15.20386,46.42615-17.32161,66.9686-.28377,29.57856,24.53287,66.78857,23.81146,90.64163,6.49464,23.85242-17.31729,53.43034,2.1652,32.4394,20.92484-20.99095,18.75964,0,64.21639,74.42129,31.02512,74.42066-33.18984,91.59397-4.328,113.53916,5.77323,21.94456,10.10171,47.70612-12.98785,19.08245-31.74797-28.62367-18.7606,48.49624-46.50364,47.22899-12.98737-2.09935,55.53498,51.0479,70.94016,81.10231,57.23186,30.05505-13.70974,48.18324,8.65841,35.30215,19.12059-12.8811,10.46266,6.08557,31.37935,40.19554,12.79995,34.10997-18.57845,45.55969-14.64974,55.9343-2.33537,10.37333,12.31437,20.98077,18.31481,44.83319,18.31481h135.88769s2.058,0,2.058,0h121.73426c49.61335,0,54.20766-12.64326,89.50917-45.83406,25.57834-24.04873,62.2896-21.16931,60.10882,10.82361-.94534,13.85978,24.80667,28.86135,53.43034,3.60755,28.62304-25.25381,55.33884-28.13994,86.82399-12.98737,31.48515,15.15209,74.59823,11.63855,80.32373-25.15979,2.98171-19.16804,17.10143-32.44206,34.12015-37.31508v-147.17964h0Z" fill="#0033a1" stroke-width="0"/>
</svg>