<?xml version="1.0" encoding="UTF-8"?>
<svg id="Livello_1" data-name="Livello 1" xmlns="http://www.w3.org/2000/svg" viewBox="0 0 1365.99494 765.10615">
  <path d="M1382.81462,635.39017v145.21997c0,6.59998-5.55274,12-12.33965,12H-9.499c-6.78666,0-12.33965-5.40002-12.33965-12v-92.57001c21.49171-7.92999,46.8496-20.44,66.94271-34.59998,15.20841-10.72003,39.0138-13.20001,61.36913-12.52002l57.72914,7.60999c.22595.03003.46244.04004.69918.04004,44.98831.12,62.39743-1.95001,94.63487-40.84003,23.41451-28.23999,56.88561-24.76001,54.78783,12.90002-.91508,16.32001,22.53031,34.03998,48.72118,4.38995,26.20117-29.65997,50.58222-32.98999,79.25148-15.06995,28.669,17.91998,54.829,1,60.17638-42.30005,5.34713-43.31,48.41239-65.75995,75.31274-36.81,26.89031,28.96002,60.47463,32.94,82.28492,12.62,21.82084-20.32996,48.73148,2.68005,29.52283,24.71002-19.20865,22.03998-.2262,75.60999,67.77544,36.72003,68.00164-38.88,83.61148-21.47003,103.60165-9.53003,19.97988,11.95001,43.50761,1.45001,17.46059-20.71002-26.03648-22.15997,30.19112-52.57996,43.12702-15.15997,12.94644,37.40997,46.46901,34.47998,73.93522,18.41998,27.45567-16.06,43.91883,10.32001,32.13451,22.60004-11.79462,12.28998,5.43952,36.95996,36.61777,15.16998,31.17825-21.78003,41.6054-17.13,51.02458-2.59998,9.41918,14.51996,19.07509,21.60999,40.83392,21.67999l123.95183.34998h1.88163l100.87674.28003Z" fill="#fff" stroke-width="0"/>
</svg>