<?xml version="1.0" encoding="UTF-8"?>
<svg id="Livello_1" data-name="Livello 1" xmlns="http://www.w3.org/2000/svg" viewBox="0 0 1365.99494 765.10615">
  <path d="M1365.9929,607.88789v145.21997c0,6.59998-5.3999,12-12,12H12.00291C5.40306,765.10786.00291,759.70784.00291,753.10786v-92.57001c20.90015-7.92999,45.56006-20.44,65.1001-34.59998,14.78979-10.72003,37.93994-13.20001,59.67993-12.52002l56.14014,7.60999c.21973.03003.44971.04004.67993.04004,43.75.12,60.67993-1.95001,92.03003-40.84003,22.77002-28.23999,55.31982-24.76001,53.27979,12.90002-.88989,16.32001,21.91016,34.03998,47.38013,4.38995,25.47998-29.65997,49.18994-32.98999,77.07007-15.06995,27.87988,17.91998,53.31982,1,58.52002-42.30005,5.19995-43.31,47.07983-65.75995,73.23975-36.81,26.15015,28.96002,58.81006,32.94,80.02002,12.62,21.22021-20.32996,47.39014,2.68005,28.71021,24.71002-18.67993,22.03998-.21997,75.60999,65.90991,36.72003,66.12988-38.88,81.31006-21.47003,100.75-9.53003,19.42993,11.95001,42.31006,1.45001,16.97998-20.71002-25.31982-22.15997,29.36011-52.57996,41.93994-15.15997,12.59009,37.40997,45.18994,34.47998,71.90015,18.41998,26.69995-16.06,42.70996,10.32001,31.25,22.60004-11.46997,12.28998,5.28979,36.95996,35.60986,15.16998,30.32007-21.78003,40.46021-17.13,49.62012-2.59998,9.15991,14.51996,18.55005,21.60999,39.70996,21.67999l120.54004.34998h1.82983l98.1001.28003Z" fill="#ff5c35" stroke-width="0"/>
</svg>