<?xml version="1.0" encoding="UTF-8"?>
<svg id="Livello_2" data-name="Livello 2" xmlns="http://www.w3.org/2000/svg" viewBox="0 0 80.20873 106.76362">
  <g id="Livello_1-2" data-name="Livello 1">
    <g>
      <path d="M60.63608,93.61901c-1.63991.09326-3.0103,1.02581-4.54135,1.46991-1.62212.47051-3.11863,1.32622-4.78957,1.67709-.46042-2.89245-2.0789-4.58858-4.63951-4.7333-1.68659-.09532-3.1329.6618-4.49716,1.55741-1.9843,1.30262-3.90822,2.70271-5.93585,3.93277-5.14925,3.12376-12.40008,1.42475-15.5877-3.58743.00589-.38076-.01667-.76449.02251-1.14179.1805-1.73836.18667-1.73771-1.63566-1.74283-.38266-.66966-.56635-1.40645-.6845-2.15632-1.25542-7.96779,3.65688-15.80947,11.40493-18.16499,1.08643-.33027,2.22691-.47867,3.33184-.75357.78581-.19548,1.26875-.756,1.17501-1.55739-.0899-.76858-.61579-1.28014-1.43211-1.3681-.37728-.04062-.76172-.01841-1.14292-.01846-5.24254-.00068-10.4851.00583-15.72763-.00159-8.10019-.01146-13.50095-7.08271-11.43672-14.96435-.01198-.10163.02477-.1791.11026-.23238l-.00398.00561c1.83996-.27742,1.5186-1.6319,1.43034-2.87021,1.82111-3.01234,4.58365-4.5771,7.9769-5.12742,1.74693-.28333,3.51748-.1707,5.27885-.17141,9.24258-.00374,18.48516-.00168,27.72774-.0019.76058-.00002,1.54564.06865,2.22144-.36183,1.10506-.70392,1.66167-1.70645,1.35503-3.02849-.31974-1.37843-1.3934-2.15946-2.96911-2.16252-7.1463-.01388-14.29277.01872-21.43893-.01628-6.08784-.02979-11.04426-4.73357-11.51696-10.85019-.4547-5.88367,3.8375-11.11883,9.81948-12.09574,1.55649-.25418,3.1341-.05129,4.68257-.44416.96453-.24469,1.42164-.80415,1.41781-1.67933-.01266-2.89835-.09997-5.79638-.15864-8.69453,1.34742-.49423,2.04177-1.78516,3.16507-2.58306,3.49393-2.48181,9.18352-2.31989,12.51748.43899,2.88239,2.3852,4.23471,5.41292,3.98317,9.12463-.08365,1.23453.24557,1.84012,1.47706,2.43757,3.28453,1.59351,5.51751,4.20308,5.91231,7.97334.12177,1.16298.60385,1.22634,1.52691,1.24759,3.73131.08589,6.89225,1.2807,9.21722,4.45204,2.93454,4.00282,2.73422,9.3895-.55581,13.25435-1.19986,1.40949-2.50027,2.7342-3.77406,4.07936-.31513.33279-.57057.78976-1.1296.78978.02014-.18479.01677-.37596.06382-.55375,1.95788-7.39658-1.47268-14.81117-8.36601-18.13212-2.28283-1.09977-4.69411-1.50187-7.19812-1.50116-3.21596.00091-6.43192.00021-9.59925.00021-.12504-.43268.12267-.50636.24749-.59103,3.70847-2.5156,5.27923-6.12468,5.33128-10.48374.03586-3.00352-.02388-6.00814.00555-9.0118.01104-1.12593-.36074-1.96318-1.55761-1.92321-1.12254.03749-1.40733.89325-1.39225,1.93397.04007,2.76518.03388,5.53124.02554,8.29689-.01742,5.7767-2.83404,9.25073-8.47636,10.52923-1.82326.41312-3.66551.54473-5.52563.60488-.85705.0277-1.56719.40745-1.82475,1.32808-.19948.71307.02783,1.30894.52825,1.81836.52398.53343,1.19806.49465,1.87086.49431,7.05752-.00358,14.11608-.07649,21.17227.02131,7.81972.10837,13.57346,7.26546,12.08477,14.86485-1.18826,6.06579-6.27571,10.20043-12.67184,10.21669-10.20474.02593-20.40957.00699-30.61437.00861-.47653.00007-.95757-.02265-1.42867.03241-1.05301.12302-1.61231.7611-1.67379,1.80205-.05905.99963.49164,1.63301,1.3969,1.90434.44132.13231.94458.07477,1.41979.07485,15.49794.00293,30.99587.00531,46.49381-.00409,1.05352-.00065,2.09152.08173,3.1266.26532,3.87214.68681,7.55672,4.04477,8.27361,7.54871-.55379,1.51901-1.85004,2.47232-2.82321,3.66877-.52833.64956-.66121,1.02064.24665,1.46136.95242.46239,2.0126.86356,2.52142,1.93641-.0689.27152-.09464.56365-.21305.8115-2.17464,4.55211-5.8336,6.72154-10.83539,6.72278-4.24179.00103-8.48359-.00328-12.72534.01002-.93948.00295-1.87276.0989-1.99507,1.33242-.10843,1.09343.60019,1.44536,1.50663,1.72629,5.46914,1.69499,9.01488,5.26501,10.4493,10.85538ZM38.47163,79.72757c-.00002-.01105-.00003-.02209-.00005-.03315-1.18997,0-2.38064-.02674-3.56976.00505-3.45363.09233-5.99202,2.03571-6.82606,5.1956-.48744,1.84671-.13292,3.14528,1.01875,3.98256,1.44146,1.04795,2.48607.09347,3.58376-.65169.19656-.13343.39356-.26621.59022-.3995,3.06266-2.0753,6.03618-4.3064,9.75633-5.15748.73599-.16839,1.23005-.74318,1.1498-1.59304-.07985-.84559-.63655-1.29929-1.42185-1.3317-1.42485-.05877-2.85387-.01666-4.28114-.01666Z" fill="#88cdd3" stroke-width="0"/>
      <path d="M30.45251,4.33529c.05867,2.89815.14598,5.79618.15864,8.69453.00382.87518-.45328,1.43463-1.41781,1.67933-1.54847.39286-3.12608.18998-4.68257.44416-5.98198.97691-10.27419,6.21207-9.81948,12.09574.4727,6.11663,5.42912,10.8204,11.51696,10.85019,7.14616.035,14.29263.00239,21.43893.01628,1.57571.00306,2.64937.78408,2.96911,2.16252.30665,1.32204-.24996,2.32457-1.35503,3.02849-.6758.43048-1.46086.36181-2.22144.36183-9.24258.00023-18.48516-.00183-27.72774.0019-1.76137.00072-3.53192-.11191-5.27885.17141-3.39325.55032-6.15579,2.11508-7.97689,5.12741-.72491.83309-1.22834,1.77655-1.43035,2.87023,0,0,.00398-.00561.00385-.00555-.0368.07747-.07347.15491-.11013.23233-2.06423,7.88164,3.33653,14.95289,11.43672,14.96435,5.24253.00742,10.48509.00091,15.72763.00159.38119.00005.76564-.02216,1.14292.01846.81632.08795,1.34221.59952,1.43211,1.3681.09374.80139-.3892,1.36191-1.17501,1.55739-1.10493.27491-2.24541.4233-3.33184.75357-7.74806,2.35552-12.66036,10.1972-11.40493,18.16499.11816.74987.30184,1.48666.68451,2.15635.31927,1.0837.77603,2.09049,1.61315,2.88459,3.18762,5.01218,10.43844,6.71119,15.5877,3.58743,2.02763-1.23006,3.95155-2.63015,5.93585-3.93277,1.36427-.89561,2.81058-1.65273,4.49716-1.55741,2.56061.14473,4.17909,1.84086,4.63951,4.7333-.01824,2.65262-.06155,5.30553-.04146,7.95792.00727.95925-.23628,1.73806-1.21034,1.98854-.87195.22421-1.41927-.31607-1.75086-1.08744-.00559-2.61722.03146-5.23563-.02868-7.85183-.06236-2.71258-1.4254-3.47846-3.77804-2.08105-1.75218,1.04072-3.41606,2.23222-5.10148,3.38265-2.3484,1.60292-4.85164,2.78472-7.73145,3.03649-2.42036.21163-4.70091-.43928-6.98711-1.07508,0,0,.00281.00341.00273.00351-.03138-.18315-.13615-.24862-.31456-.19602-3.9066-1.92715-6.71455-4.87959-8.33959-8.93593-2.51905-9.01716.61023-16.04946,7.87349-21.86006-2.84017,0-5.44063.03496-8.03983-.00723-5.51048-.08947-9.77096-2.44618-12.73343-7.11779-1.33053-2.09818-1.85019-4.44472-2.15579-6.86161-.00131-2.88106.65162-5.6001,2.01627-8.14264,3.36642-5.12557,8.13231-7.48764,14.23817-7.25297,1.53866.05915,3.08151.00889,4.62244.00889-.29417-.3474-.6357-.45481-.96362-.59419-3.50696-1.49066-6.11032-3.91747-7.79331-7.36266-1.25474-2.56851-1.40511-5.28841-1.34574-8.05916.77034-3.96113,2.48849-7.34721,5.82172-9.79817,1.79419-1.31926,3.80433-2.0998,5.93772-2.62592,1.2608-.10666,2.89589.22952,3.68441-.43652.90641-.76562.29412-2.4548.28194-3.74567.02037-.94771.05249-1.89536.05757-2.84316.00441-.82256.22247-1.51612,1.0919-1.7761.8658-.25891,1.46897.10097,1.83426.90248Z" fill="#64358c" stroke-width="0"/>
      <path d="M60.63608,93.61901c-1.43442-5.59037-4.98016-9.16038-10.4493-10.85538-.90644-.28093-1.61506-.63286-1.50663-1.72629.12231-1.23351,1.05559-1.32946,1.99507-1.33242,4.24175-.01331,8.48356-.00899,12.72534-.01002,5.00179-.00124,8.66075-2.17067,10.83539-6.72278.11841-.24786.14415-.53998.21305-.8115.99903-2.34787,1.07997-4.70288.05514-7.06654-.71689-3.50395-4.40148-6.86191-8.27361-7.54871-1.03508-.18359-2.07308-.26597-3.1266-.26532-15.49794.0094-30.99587.00702-46.49381.00409-.47521-.00009-.97847.05746-1.41979-.07485-.90526-.27133-1.45595-.90471-1.3969-1.90434.06148-1.04095.62078-1.67903,1.67379-1.80205.4711-.05507.95214-.03234,1.42867-.03241,10.2048-.00162,20.40963.01732,30.61437-.00861,6.39613-.01626,11.48357-4.1509,12.67184-10.21669,1.48869-7.59939-4.26505-14.75648-12.08477-14.86485-7.05618-.0978-14.11475-.02489-21.17227-.02131-.6728.00033-1.34689.03912-1.87086-.49431-.50042-.50942-.72773-1.10529-.52825-1.81836.25756-.92064.9677-1.30039,1.82475-1.32808,1.86011-.06015,3.70237-.19176,5.52563-.60488,5.64232-1.2785,8.45894-4.75253,8.47636-10.52923.00834-2.76565.01453-5.53171-.02554-8.29689-.01508-1.04072.26972-1.89648,1.39225-1.93397,1.19687-.03997,1.56865.79728,1.55761,1.92321-.02944,3.00366.03031,6.00828-.00555,9.0118-.05204,4.35906-1.62281,7.96814-5.33128,10.48374-.12482.08467-.37253.15835-.24749.59103,3.16733,0,6.38329.0007,9.59925-.00021,2.504-.00072,4.91529.40139,7.19812,1.50116,6.89333,3.32095,10.32389,10.73554,8.36601,18.13212-.04705.17779-.04368.36895-.06382.55375-.13268.36653-.26539.73316-.39804,1.09968-1.38821,3.01569-3.36078,5.55797-6.14799,7.53128,2.18605.15189,4.30795.21406,6.42513.14027,6.43022-.22405,11.15415,2.48697,14.22095,8.12432,1.79796,4.20785,1.66936,8.38767-.18238,12.54234-1.99772,3.31166-4.63611,5.85223-8.42108,7.02536-1.78797.55416-3.61448.75267-5.48167.71964-1.86213-.03294-3.7253-.00721-5.94885-.00721,3.53364,2.70989,5.50169,5.98741,6.66848,9.79213.74592,4.10474.29245,8.25002.42224,12.37561.03336,1.05973-.3705,1.8615-1.48075,1.83672-1.08089-.02417-1.48752-.81259-1.47193-1.87614.03137-2.1396-.00534-4.28014.01398-6.42004.0146-1.61756.00736-3.22974-.37427-4.81483Z" fill="#64358c" stroke-width="0"/>
      <path d="M.96879,56.06109c.3056,2.41689.82526,4.76343,2.15579,6.86161,2.96247,4.67162,7.22295,7.02832,12.73343,7.11779,2.5992.04219,5.19966.00723,8.03983.00723-7.26326,5.8106-10.39254,12.8429-7.87349,21.86006-4.85942-.2098-8.83919-3.13162-10.02508-7.62687-.91258-3.45918-.52536-6.76882,1.97012-9.59494.68899-.78026,1.95421-1.73677,1.82569-2.39032-.18431-.93716-1.73892-.57654-2.67855-.87502-3.74047-1.18825-6.8364-5.37207-7.09954-9.3439-.14051-2.12087.62706-4.01447.95179-6.01565Z" fill="#88cdd3" stroke-width="0"/>
      <path d="M76.89231,62.44543c-3.0668-5.63735-7.79073-8.34837-14.22095-8.12432-2.11718.07379-4.23908.01161-6.42513-.14027,2.78721-1.97331,4.75978-4.51559,6.14798-7.53128.42159.39664.70654-.00616.97147-.2094,5.29494-4.06188,13.44432-1.93667,16.07547,4.69338,1.55169,3.90998.67693,7.65371-1.95752,10.94553-.13654.17061-.39149.24642-.59132.36637Z" fill="#88cdd3" stroke-width="0"/>
      <path d="M11.74299,24.65835c-.05937,2.77075.091,5.49065,1.34574,8.05916,1.68299,3.4452,4.28635,5.872,7.79331,7.36266.32793.13938.66946.24679.96362.59419-1.54093,0-3.08378.05026-4.62244-.00889-6.10586-.23467-10.87175,2.1274-14.23817,7.25297-.05441-.55699-.43154-.95545-.73601-1.36518-3.12785-4.20906-2.09182-10.34835,1.32534-13.82149,2.26693-2.30409,4.6793-4.46866,6.73387-6.98171.37216-.45521.72981-1.02951,1.43474-1.09172Z" fill="#88cdd3" stroke-width="0"/>
      <path d="M63.5268,92.51768c-1.16679-3.80472-3.13485-7.08224-6.66848-9.79213,2.22355,0,4.08672-.02573,5.94885.00721,1.86719.03303,3.6937-.16548,5.48167-.71964,3.78497-1.17312,6.42337-3.71369,8.42108-7.02536,2.95534,5.37437.3629,12.5465-6.33695,14.88303-1.87665.6545-3.7462,1.32946-5.6249,1.97788-.45062.15554-.91349.26361-1.22127.66899Z" fill="#88cdd3" stroke-width="0"/>
      <path d="M24.36393,100.84372c.17841-.0526.28317.01287.31456.19602-.17253.04336-.27124-.03184-.31456-.19602Z" fill="#144584" stroke-width="0"/>
      <path d="M38.47163,79.72757c1.42728,0,2.85629-.04211,4.28114.01666.78529.03241,1.342.48611,1.42185,1.3317.08025.84986-.41381,1.42465-1.1498,1.59304-3.72015.85108-6.69368,3.08218-9.75633,5.15748-.19666.13329-.39366.26607-.59022.3995-1.09769.74516-2.1423,1.69964-3.58376.65169-1.15168-.83728-1.50619-2.13585-1.01875-3.98256.83404-3.1599,3.37243-5.10327,6.82606-5.1956,1.18912-.03179,2.37979-.00505,3.56976-.00505.00002.01105.00003.02209.00005.03315ZM31.04586,85.72062c1.48308-1.01378,2.79966-1.91375,4.26474-2.91524-2.31807-.14965-3.57435.70167-4.26474,2.91524Z" fill="#64358c" stroke-width="0"/>
      <path d="M74.50415,65.09407c1.02483,2.36366.9439,4.71867-.05514,7.06654-.50882-1.07284-1.569-1.47402-2.52142-1.93641-.90787-.44072-.77498-.8118-.24665-1.46136.97317-1.19645,2.26942-2.14977,2.82321-3.66877Z" fill="#88cdd3" stroke-width="0"/>
      <g>
        <path d="M27.46878,8.05206c.01218,1.29087.62447,2.98005-.28194,3.74567-.78851.66604-2.4236.32987-3.68441.43652,1.10413-1.60093,2.54447-2.8828,3.96635-4.18219Z" fill="#88cdd3" stroke-width="0"/>
        <path d="M4.62598,51.8393c.20201-1.09368.70544-2.03714,1.43035-2.87023.08825,1.23833.40961,2.59281-1.43035,2.87023Z" fill="#88cdd3" stroke-width="0"/>
      </g>
      <path d="M4.51969,52.06608c.03667-.07742.07333-.15486.11013-.23233-.08536.05323-.12211.1307-.11013.23233Z" fill="#f7f0f0" stroke-width="0"/>
      <g>
        <path d="M24.67576,101.03623c2.2862.63579,4.56675,1.28671,6.98711,1.07508,2.87981-.25177,5.38304-1.43357,7.73145-3.03649,1.68541-1.15044,3.3493-2.34193,5.10148-3.38265,2.35264-1.39742,3.71568-.63153,3.77804,2.08105.06014,2.61619.02309,5.2346.02868,7.85183-.49332-2.00815-.15529-4.04798-.20346-6.07148-.02444-1.02647-.0203-1.43123-1.2836-.93569-4.19196,1.64442-8.41658,3.22044-12.6903,4.63674-3.16435,1.04865-6.17611.2502-8.98678-1.40613-.30672-.18074-.50794-.4279-.46261-.81224Z" fill="#88cdd3" stroke-width="0"/>
        <path d="M20.64494,93.93546c-.83711-.79409-1.29386-1.80088-1.61314-2.88459,1.82232.00508,1.81615.00444,1.63565,1.7428-.03918.3773-.01663.76103-.02251,1.14179Z" fill="#1dab9e" stroke-width="0"/>
        <path d="M31.04586,85.72062c.69039-2.21357,1.94667-3.06489,4.26474-2.91524-1.46508,1.00148-2.78167,1.90146-4.26474,2.91524Z" fill="#88cdd3" stroke-width="0"/>
      </g>
    </g>
  </g>
</svg>