<?xml version="1.0" encoding="UTF-8"?>
<svg id="Livello_2" data-name="Livello 2" xmlns="http://www.w3.org/2000/svg" viewBox="0 0 30.13443 30.13443">
  <g id="Livello_1-2" data-name="Livello 1">
    <g>
      <path d="M10.155,18.66219c-.03446,1.14375-.03725,2.0798-.03353,2.66937l-4.39059,4.39059-1.31792-1.31793,5.74204-5.74204Z" fill="#fff" stroke-width="0"/>
      <path d="M25.72233,5.73071l-6.27387,6.27387c-.10711-.76281-.23471-1.5191-.3856-2.25025l5.34155-5.34155,1.31793,1.31792Z" fill="#fff" stroke-width="0"/>
      <path d="M15.06722,30.13443C6.75911,30.13443,0,23.37532,0,15.06722S6.75911,0,15.06722,0s15.06722,6.75911,15.06722,15.06722-6.75911,15.06722-15.06722,15.06722ZM15.06722,1.86279C7.78628,1.86279,1.86279,7.78629,1.86279,15.06722s5.9235,13.20443,13.20443,13.20443,13.20443-5.9235,13.20443-13.20443S22.34815,1.86279,15.06722,1.86279Z" fill="#fff" stroke-width="0"/>
      <g>
        <g>
          <g>
            <path d="M18.56083,12.3995c-.30922.10432-.54393.25054-.76188.38746-.353.22074-.63148.39491-1.24248.39491-.33996,0-.57746-.05402-.78144-.13971-.16299-.06799-.30457-.15647-.46104-.2552-.40236-.25148-.85782-.53649-1.73705-.53649-.8783,0-1.33376.28501-1.73611.53649-.11736.07358-.22726.1425-.34276.20025.26266-2.17388.67806-4.35241,1.3319-6.03358.05681.00559.11363.00839.17137.00839h4.15961c.04843,0,.09686-.00187.14436-.00652.40609,1.04595.7209,2.28378.96306,3.59331.1127.60541.20956,1.22572.29246,1.85069Z" fill="#ff5c35" stroke-width="0"/>
            <path d="M19.07217,21.97889v3.6194c0,.36325-.29432.65663-.65663.65663h-6.69672c-.36231,0-.65664-.29339-.65664-.65663v-3.6194s-.0149-.59982-.00745-1.58058c.00651-.72369.02514-1.65508.07078-2.70663.04844-1.12233.12853-2.38157.25893-3.67062.40608-.10432.69016-.28128.95002-.44428.35299-.22074.63148-.39491,1.24248-.39491.61193,0,.89041.17417,1.24342.39491.08382.05216.16951.10618.26172.15834.34834.19932.77958.37814,1.47439.37814.36883,0,.66316-.05029.91091-.1276.34089-.10618.59237-.26359.82522-.40888.13133-.08289.25334-.15926.38653-.22167.49643,4.37942.39305,8.62378.39305,8.62378Z" fill="#ff5c35" stroke-width="0"/>
          </g>
          <path d="M12.4248,5.75679c.13599.16672.34369.27383.57653.27383h4.15961c.23285,0,.44055-.10711.57653-.27383h-5.31268Z" fill="#ff5c35" stroke-width="0"/>
        </g>
        <path d="M17.90606,4.62421v.6613c0,.17882-.06333.34275-.16858.47128-.13598.16672-.34368.27383-.57653.27383h-4.15961c-.23285,0-.44055-.10711-.57653-.27383-.10525-.12853-.16858-.29246-.16858-.47128v-.6613c0-.41167.33344-.74511.74512-.74511h4.15961c.41167,0,.74511.33344.74511.74511Z" fill="#ff5c35" stroke-width="0"/>
      </g>
    </g>
  </g>
</svg>