<?xml version="1.0" encoding="UTF-8"?>
<svg id="Livello_1" data-name="Livello 1" xmlns="http://www.w3.org/2000/svg" viewBox="0 0 241.85925 28.71988">
  <path d="M10.49324.98444h8.44733l9.18009,27.27319h-6.78834l-2.58522-7.98507h-9.21947l-2.97043,7.98507H0L10.49324.98444ZM17.20453,15.52842l-2.7393-10.49324-3.20156,10.49324h5.94086Z" fill="#fff" stroke-width="0"/>
  <path d="M29.04346,14.79566c0-9.48997,5.0523-14.19644,14.96687-14.19644,4.04903,0,6.44079.73276,8.4867,1.65899l-1.73603,4.74413c-2.58522-.69339-3.66553-.96389-6.67363-1.00327-4.93759-.07704-8.37199,2.70164-8.37199,8.40966,0,5.70973,3.62615,8.75721,9.14242,8.75721,2.66226,0,4.24421-.23113,6.32779-.77214l1.38848,4.93759c-2.62288.9656-4.89993,1.31144-8.40966,1.31144-9.99161,0-15.12095-4.89822-15.12095-13.84718Z" fill="#fff" stroke-width="0"/>
  <path d="M56.85081.98444h7.59985l10.72437,18.70944-.19346-3.04747V.98444h6.55721v27.27319h-7.83098l-10.45387-18.24547.15409,3.62615v14.61932h-6.55721V.98444Z" fill="#fff" stroke-width="0"/>
  <path d="M87.55155.98444h17.89963v5.13106h-11.34243v6.05557h10.49324v4.78351h-10.49324v6.17199h12.22928v5.13106h-18.78648V.98444Z" fill="#fff" stroke-width="0"/>
  <path d="M111.19516.98444h9.5653c6.67363,0,10.14569,2.39175,10.14569,7.52281,0,2.27533-1.34911,3.9737-2.7393,4.86055v.07704c1.85245.65572,4.70646,2.66226,4.70646,6.40312,0,4.97697-2.93105,8.40966-10.9555,8.40966h-10.72266V.98444ZM120.14412,12.17107c2.85401,0,4.28187-.49992,4.28187-2.93105,0-2.31471-1.54257-3.24094-4.62942-3.24094h-2.00483v6.17199h2.35238ZM121.10801,23.12657c3.47207,0,5.2081-.92451,5.2081-3.12452,0-2.4688-1.89012-3.35565-5.67036-3.35565h-2.85401v6.48016h3.31627Z" fill="#fff" stroke-width="0"/>
  <path d="M137.34523.98444h6.55721v27.27319h-6.55721V.98444Z" fill="#fff" stroke-width="0"/>
  <path d="M148.56781,14.56282c0-8.60141,5.70973-14.00126,15.00624-14.00126,9.91285,0,14.19473,5.93915,14.19473,14.07831,0,8.68017-5.20639,14.08002-14.92749,14.08002-9.56702,0-14.27348-5.39985-14.27348-14.15706ZM171.09515,14.6022c0-5.09168-2.35238-8.87192-7.86865-8.87192-5.78678,0-8.02445,3.78024-8.02445,8.79487,0,4.97526,2.2,9.026,7.75394,9.026,6.01791,0,8.13915-3.85728,8.13915-8.94896Z" fill="#fff" stroke-width="0"/>
  <path d="M182.98715,0c.61806,0,1.21214.15409,1.77883.46397.56841.30817,1.01525.7516,1.34055,1.33027.32529.57697.48623,1.18132.48623,1.81136,0,.62833-.15922,1.22755-.47767,1.79767-.31844.56841-.76187,1.01354-1.33199,1.33199s-1.16763.47767-1.79596.47767-1.22584-.15922-1.79596-.47767-1.01354-.76358-1.33199-1.33199c-.31844-.57012-.47938-1.16934-.47938-1.79767,0-.63004.16265-1.2344.48794-1.81136.32529-.57868.77214-1.0221,1.33883-1.33027.56841-.30988,1.16249-.46397,1.78055-.46397ZM182.99229.70537c-.4965,0-.97245.12498-1.42786.37323-.4537.24825-.81323.60436-1.07518,1.06833s-.39377.95191-.39377,1.45868.1284.98786.38521,1.44669c.2551.45712.61292.81494,1.07004,1.07346.45883.25681.93821.38521,1.44156.38521.50506,0,.98615-.1284,1.44327-.38521.45541-.25852.81323-.61634,1.07004-1.07346.25852-.45883.38693-.93992.38693-1.44669s-.13183-.99471-.39377-1.45868-.62148-.82008-1.0786-1.06833c-.45541-.24825-.93308-.37323-1.42786-.37323ZM181.35727,5.53682V1.70864h.77728c.72934,0,1.13681.00342,1.22413.01027.25852.02226.45712.07191.60093.15237.1421.08047.26195.20202.35782.36809.09588.16436.14381.34755.14381.54786,0,.27564-.09074.51191-.27051.70879-.18148.19518-.43486.31844-.76187.36467.11642.04451.20716.09245.26879.14381.06335.05136.14895.14895.25852.29448.02911.03767.12327.19346.28249.46568l.45198.77214h-.96047l-.32016-.62148c-.21572-.41774-.39549-.67969-.53588-.78926-.1421-.10786-.32016-.16093-.53759-.16093h-.20202v1.57168h-.77728ZM182.13454,3.36249h.31502c.45027,0,.72763-.01883.8372-.05307.10786-.03424.19346-.09416.2551-.18148.06335-.0856.09416-.18319.09416-.29276,0-.10786-.02911-.20202-.09074-.28591-.06163-.08218-.14895-.1421-.26195-.17805s-.39035-.05479-.83378-.05479h-.31502v1.04607Z" fill="#fff" stroke-width="0"/>
  <path d="M194.6446,1.28918h6.17884c3.10055,0,5.60016,1.62132,5.60016,4.953,0,4.88281-4.48903,6.5709-8.65449,6.5709h-.74132l-.50848,4.83658h-3.58677l1.71206-16.36049ZM197.32912,10.01386c2.66055-.04623,5.36903-.27735,5.36903-3.33168,0-1.76-1.04094-2.59207-2.66226-2.59207h-2.08187l-.6249,5.92374Z" fill="#ff5c35" stroke-width="0"/>
  <path d="M213.27186,11.47083c-.39206.04623-.78584.07019-1.17961.07019-.39206,0-.76358-.02397-1.15564-.02397l-.64887,6.13261h-3.58677l1.71206-16.36049h6.13261c2.96187,0,5.60016,1.24981,5.60016,4.42055,0,2.29074-1.08887,3.93432-3.14849,4.92903l4.09697,6.24732-3.30942,1.66584-4.513-7.0811ZM212.69489,8.97293c2.17432,0,3.74771-.6249,3.74771-3.0081,0-1.61961-1.24981-1.85245-2.68452-1.85245h-2.03564l-.50848,4.86055h1.48094Z" fill="#ff5c35" stroke-width="0"/>
  <path d="M221.69693,10.77745c0-6.10865,3.74771-9.74165,9.78787-9.74165,4.67394,0,7.58958,2.40545,7.58958,7.0811,0,6.15487-3.60903,9.81013-9.7639,9.81013-4.67565,0-7.61355-2.54584-7.61355-7.14958ZM235.39516,8.50896c0-2.84545-1.43471-4.62771-4.39658-4.62771-3.86413,0-5.66865,2.86942-5.66865,6.50242,0,2.82319,1.38848,4.6979,4.35036,4.6979,3.95658,0,5.71487-2.89339,5.71487-6.57262Z" fill="#ff5c35" stroke-width="0"/>
</svg>