<?xml version="1.0" encoding="UTF-8"?>
<svg id="Livello_2" data-name="Livello 2" xmlns="http://www.w3.org/2000/svg" viewBox="0 0 49.15461 15.42994">
  <g id="Livello_1-2" data-name="Livello 1">
    <g>
      <g>
        <rect x="0" y="0" width="15.70925" height="15.42994" fill="#ea5d3f" stroke-width="0"/>
        <path d="M48.60219,8.38743l.55242-.52779v5.97103h-.55242v-5.44324ZM47.11158,11.93658h-.08787c-.82246,0-1.71725.08843-1.71725.86211,0,.4581.32309.63332.73673.63332,1.04482,0,1.06839-.89855,1.06839-1.31113v-.18431ZM47.15499,13.32806c-.24647.3874-.73298.59209-1.16216.59209-1.1043,0-1.28379-.75442-1.28379-1.10699,0-1.31165,1.40381-1.36253,2.35861-1.36253h.04394s0-.14788,0-.14788c0-.16129.00804-.30113.01233-.42223.00374-.12054.00053-.21646-.02037-.28985-.03483-.13127-.12645-.20953-.43453-.20953-.38311,0-.74155.08735-1.07965.30221l-.06965.045v-.5583l.02465-.01285c.29415-.14308.78655-.26202,1.12465-.26202.97516,0,.99659.46723.99659,1.44508v1.6567c0,.30061,0,.52671.03376.78229l.00911.05144h-.55348v-.50261ZM41.60405,10.61528c.20146-.40934.63439-.72012,1.19752-.72012.78709,0,1.2302.55458,1.2302,1.30416v2.63134h-.55188v-2.54295c0-.52027-.19128-.90659-.75227-.90659-.47687,0-.96552.40777-.96552,1.32722v2.12232h-.55403v-2.54295c0-.52027-.19074-.90659-.75065-.90659-.47687,0-.96499.40777-.96499,1.32722v2.12232h-.55295v-2.91906c0-.28507,0-.5792-.03054-.87981l-.00482-.04876h.54277v.54333c.0209-.03431.04233-.07021.06698-.10612.05465-.08143.1243-.16822.21539-.24645.18324-.15861.44847-.27863.85996-.27863.32095,0,.85194.12859,1.01482.72012M37.01006,10.57673c.18539-.3649.49133-.68156.93552-.68156.11466,0,.25183.02198.33648.04556l.03376.00804v.58133l-.05733-.01766c-.09001-.02786-.21325-.04235-.3263-.04235-.68905,0-.89212.77424-.89212,1.45845v1.90213h-.55456v-2.96302c0-.41042.00107-.56475-.02839-.83533l-.00429-.04928h.55724v.59369ZM35.09456,11.59742c-.01179-.63545-.27648-1.21629-.91194-1.21629-.63653,0-1.04375.62263-1.0625,1.21629h1.97444ZM35.42193,13.69348l-.03643.01609c-.33059.13447-.75763.21057-1.10912.21057-1.27897,0-1.75315-.87228-1.75315-2.01303,0-1.16485.64457-2.01195,1.62938-2.01195,1.09894,0,1.53883.88945,1.53883,1.90802v.28075h-2.57133c.01608.75975.43132,1.34808,1.19378,1.34808.32738,0,.66761-.13611.88247-.27274l.04876-.03107.17681.56527ZM30.15176,13.43202c.78067,0,1.06947-.83961,1.06947-1.5249,0-.68689-.2888-1.52598-1.06947-1.52598-.83961,0-1.06839.79462-1.06839,1.52598,0,.73084.22879,1.5249,1.06839,1.5249M31.22123,10.50759l.015-2.04462.53634-.61831v6.07172s-.51062-.65743-.51062-.65743c-.25987.46078-.651.66119-1.18466.66119-1.06786,0-1.59188-.8889-1.59188-2.01303,0-1.15199.44954-2.01195,1.59188-2.01195.621,0,.9907.37079,1.14394.61243M26.52651,13.04357l1.06036-3.06054h.58135s-1.52597,4.37751-1.52597,4.37751c-.17842.51867-.5626,1.06144-1.11769,1.06144h-.04394v-.48597h.04394c.36059,0,.50151-.29416.636-.78549l.09216-.31934-1.35077-3.84815h.60224s1.02231,3.06054,1.02231,3.06054ZM22.85089,13.43202c.77478,0,1.20074-.66707,1.20074-1.5249,0-.85996-.42596-1.52598-1.20074-1.52598-.77531,0-1.20181.66603-1.20181,1.52598,0,.85783.4265,1.5249,1.20181,1.5249M22.85089,9.89517c1.2495,0,1.7987.97357,1.7987,2.01195,0,1.03786-.5492,2.01303-1.7987,2.01303-1.25057,0-1.79816-.97517-1.79816-2.01303,0-1.03838.54759-2.01195,1.79816-2.01195M17.90756,10.87409h.49401c.59528,0,1.2361-.22506,1.2361-.8991,0-.7919-.54492-.84655-1.25111-.84655h-.47901s0,1.74565,0,1.74565ZM19.23903,11.17306c.11466.03751.20093.09592.26897.17306.0509.05625.09055.12162.12967.19344.03804.0707.07555.15109.1152.23736l.90498,2.05374h-.6569s-.75655-1.76602-.75655-1.76602c-.28559-.6451-.48866-.65798-.96123-.65798h-.3756s0,2.42401,0,2.42401h-.59796v-5.23322h1.37166c.92962,0,1.55437.40238,1.55437,1.37754,0,.62584-.43346,1.05931-.9966,1.19807" fill="#fff" fill-rule="evenodd" stroke-width="0"/>
      </g>
      <path d="M6.43641,9.29376c.25987,0,.47205-.21165.47205-.47311,0-.25989-.21218-.47099-.47205-.47099-.26201,0-.47204.2111-.47204.47099,0,.26146.21003.47311.47204.47311M3.71666,11.2264c.67886,1.58115,2.7101,1.92192,2.7101,1.92192,0,0-3.73885-2.67847-2.29485-3.07604.61724-.17146,1.6267.23307,1.6267.23307,0,0-.07715-.2663-.03375-.37935-.07609-.04876-.41043-.33488-1.30576-.30381-.53634.0209-.77048.389-.81871.80318-.17789-.06537-.48437-.11361-.9548-.00536-.94087.21538-.94302,1.3711-.60224,1.79225.78763.97517,2.60937.9891,2.60937.9891,0,0-3.08838-1.26397-2.29592-2.22573.35417-.43184.9907-.23683,1.25646-.12699.0209.13447.05787.26362.10341.37775M5.96436,10.10656l.01554.08307c-.00857-.02626-.0134-.05465-.01554-.08307M6.89506,10.17621l.01125-.06966c-.00268.02358-.00536.04556-.01125.06966M5.9799,10.18962l.47847,2.604.43668-2.61741c.00589-.0241.0134-.11466.0134-.11466,0-.25986-.21218-.47043-.47205-.47043-.26201,0-.47204.21057-.47204.47043,0,0,.00697.1018.01554.12806M9.26224,10.84865c.26576-.10985.90015-.30486,1.25593.12699.79406.96176-2.29539,2.22573-2.29539,2.22573,0,0,1.82013-.01393,2.60776-.9891.34184-.42115.34184-1.57687-.6001-1.79225-.47311-.10825-.77906-.06001-.95587.00536-.04662-.41418-.28237-.78229-.82032-.80318-.89265-.03107-1.2286.25505-1.30361.30381.04447.11305-.03697.37935-.03697.37935,0,0,1.0116-.40454,1.62992-.23307,1.44346.39757-2.29699,3.07604-2.29699,3.07604,0,0,2.03284-.34076,2.70903-1.92192.04929-.11413.08519-.24328.10662-.37775" fill="#fff" fill-rule="evenodd" stroke-width="0"/>
    </g>
  </g>
</svg>