<?xml version="1.0" encoding="UTF-8"?>
<svg id="Livello_2" data-name="Livello 2" xmlns="http://www.w3.org/2000/svg" viewBox="0 0 95.35979 25.17773">
  <g id="Livello_1-2" data-name="Livello 1">
    <text transform="translate(0 21.05273)" font-weight="700"><tspan x="0" y="0" fill="#fff" font-family="FedraSansStd-Bold, &apos;Fedra Sans Std&apos;" font-size="15" letter-spacing="-.03001em">A</tspan><tspan x="10.81445" y="0" fill="#fff" font-family="FedraSansStd-Bold, &apos;Fedra Sans Std&apos;" font-size="15">CNEBIO</tspan><tspan x="69.94385" y="-8.25" fill="#fff" font-family="Arial-BoldMT, Arial" font-size="3.75">®</tspan><tspan x="72.70703" y="-4.5" fill="#ff5c35" font-family="FedraSansStd-Bold, &apos;Fedra Sans Std&apos;" font-size="14.92661" letter-spacing="-.1em"> </tspan><tspan x="74.9458" y="-4.5" fill="#ff5c35" font-family="FedraSansStd-BoldItalic, &apos;Fedra Sans Std&apos;" font-size="9" font-style="italic">P</tspan><tspan x="80.24658" y="-4.5" fill="#ff5c35" font-family="FedraSansStd-BoldItalic, &apos;Fedra Sans Std&apos;" font-size="9" font-style="italic" letter-spacing="-.00998em">R</tspan><tspan x="86.1416" y="-4.5" fill="#ff5c35" font-family="FedraSansStd-BoldItalic, &apos;Fedra Sans Std&apos;" font-size="9" font-style="italic">O</tspan></text>
    <path d="M47.84627,1.58877c.3898,0,.70807-.31748.70807-.70967,0-.38984-.31827-.70648-.70807-.70648-.39301,0-.70806.31665-.70806.70648,0,.39219.31505.70967.70806.70967M43.76665,4.48774c1.0183,2.37173,4.06515,2.88288,4.06515,2.88288,0,0-5.60827-4.0177-3.44227-4.61405.92586-.25719,2.44005.34961,2.44005.34961,0,0-.11573-.39945-.05063-.56903-.11413-.07314-.61564-.50232-1.95864-.45572-.80451.03135-1.15573.5835-1.22806,1.20478-.26683-.09806-.72655-.17041-1.4322-.00804-1.41131.32307-1.41453,2.05665-.90337,2.68838,1.18145,1.46275,3.91405,1.48365,3.91405,1.48365,0,0-4.63257-1.89595-3.44389-3.33859.53125-.64776,1.48605-.35525,1.88469-.19048.03135.20171.0868.39543.15512.56663M47.1382,2.80797l.02331.1246c-.01286-.03939-.02009-.08197-.02331-.1246M48.53424,2.91246l.01687-.10449c-.00402.03537-.00803.06833-.01687.10449M47.16151,2.93257l.71771,3.906.65502-3.92612c.00884-.03615.02009-.17198.02009-.17198,0-.38979-.31827-.70565-.70807-.70565-.39301,0-.70806.31586-.70806.70565,0,0,.01045.15271.02331.1921M52.08502,3.92111c.39864-.16477,1.35023-.45728,1.88389.19048,1.19109,1.44264-3.44308,3.33859-3.44308,3.33859,0,0,2.73019-.0209,3.91164-1.48365.51277-.63172.51277-2.3653-.90015-2.68838-.70967-.16237-1.16859-.09001-1.43381.00804-.06993-.62127-.42355-1.17343-1.23048-1.20478-1.33898-.0466-1.8429.38258-1.95542.45572.06671.16958-.05546.56903-.05546.56903,0,0,1.5174-.6068,2.44488-.34961,2.16519.59635-3.44549,4.61405-3.44549,4.61405,0,0,3.04926-.51115,4.06354-2.88288.07394-.1712.12779-.36492.15994-.56663" fill="#ff5c35" fill-rule="evenodd" stroke-width="0"/>
  </g>
</svg>