<?xml version="1.0" encoding="utf-8"?>
<!-- Generator: Adobe Illustrator 28.1.0, SVG Export Plug-In . SVG Version: 6.00 Build 0)  -->
<svg version="1.1" id="Livello_2_00000135680384940624518530000016315471530805157527_"
	 xmlns="http://www.w3.org/2000/svg" xmlns:xlink="http://www.w3.org/1999/xlink" x="0px" y="0px" viewBox="0 0 30.1 30.1"
	 style="enable-background:new 0 0 30.1 30.1;" xml:space="preserve">
<style type="text/css">
	.st0{fill:#FFFFFF;}
	.st1{fill:#FF5C35;}
</style>
<g id="Livello_1-2_00000078041492808540770750000007433932922970564009_">
	<g>
		<path class="st0" d="M15.3,30.1C7,30.1,0.2,23.4,0.2,15.1S7,0,15.3,0s15.1,6.8,15.1,15.1S23.6,30.1,15.3,30.1z M15.3,1.9
			C8,1.9,2.1,7.8,2.1,15.1S8,28.3,15.3,28.3s13.2-5.9,13.2-13.2S22.6,1.9,15.3,1.9z"/>
	</g>
</g>
<g>
	<g>
		<path class="st1" d="M24.5,9.1c-0.9,2.1-0.6,4.9-2.1,7.6c-0.8,1.5-2.4,2.4-4,2.5c-0.7,0-1.5-0.1-2.1-0.5c0.1-0.1,0.1-0.2,0.1-0.3
			c0.4-0.9,0.5-2,0.3-3.1c1.9-2.1,3.6-3.2,3.6-3.2s-1.8,0.6-3.8,2.6c-0.3-0.9-0.9-1.7-1.7-2.4c0.3-0.5,0.7-0.9,1.1-1.3
			C17.7,9.3,20.1,8.9,24.5,9.1z"/>
	</g>
	<g>
		<path class="st1" d="M6.1,10.7c0.9,2.1,0.6,4.8,2,7.5c0.8,1.4,2.4,2.4,4,2.5c1.1,0,2.2-0.4,3.1-1.1c0.5,0.6,0.8,1.5,0.8,1.5
			l0.5-0.4c-0.3-0.5-0.6-1.1-1-1.6c-0.1-0.1-0.1-0.2-0.2-0.2c-2.3-3.2-5.2-5.2-5.2-5.2s3.2,1.1,5.7,5c0.1-0.1,0.1-0.2,0.2-0.3
			c0.4-1,0.5-2.1,0.2-3.1c-0.3-1-0.9-1.9-1.7-2.6C12.7,10.9,10.4,10.5,6.1,10.7z"/>
	</g>
</g>
</svg>
